<svg width="1574" height="1493" viewBox="0 0 1574 1493" fill="none" xmlns="http://www.w3.org/2000/svg">
<rect width="1573.83" height="1493" fill="#043915"/>
<path d="M495.885 621.907C508.892 621.907 519.048 626.094 526.353 634.468C533.836 642.664 537.578 654.157 537.578 668.945V758.211C537.578 759.102 537.222 759.904 536.509 760.617C535.974 761.151 535.262 761.418 534.371 761.418H503.101C502.21 761.418 501.408 761.151 500.696 760.617C500.161 759.904 499.894 759.102 499.894 758.211V674.291C499.894 668.054 498.379 663.155 495.35 659.591C492.321 656.028 488.223 654.246 483.056 654.246C477.711 654.246 473.435 656.117 470.228 659.858C467.199 663.422 465.684 668.322 465.684 674.558V758.211C465.684 759.102 465.328 759.904 464.615 760.617C464.081 761.151 463.368 761.418 462.477 761.418H431.207C430.316 761.418 429.514 761.151 428.802 760.617C428.267 759.904 428 759.102 428 758.211V627.252C428 626.361 428.267 625.649 428.802 625.114C429.514 624.401 430.316 624.045 431.207 624.045H462.477C463.368 624.045 464.081 624.401 464.615 625.114C465.328 625.649 465.684 626.361 465.684 627.252V634.736C465.684 635.27 465.862 635.626 466.219 635.805C466.575 635.805 467.02 635.448 467.555 634.736C473.969 626.183 483.413 621.907 495.885 621.907Z" fill="white"/>
<path d="M735.781 624.045C736.672 624.045 737.385 624.401 737.919 625.114C738.632 625.649 738.988 626.361 738.988 627.252V649.97C738.988 650.86 738.632 651.662 737.919 652.375C737.385 652.909 736.672 653.177 735.781 653.177H715.469C714.578 653.177 714.133 653.622 714.133 654.513V758.211C714.133 759.102 713.777 759.904 713.064 760.617C712.529 761.151 711.817 761.418 710.926 761.418H679.656C678.765 761.418 677.963 761.151 677.251 760.617C676.716 759.904 676.449 759.102 676.449 758.211V654.513C676.449 653.622 676.003 653.177 675.113 653.177H663.353C662.462 653.177 661.66 652.909 660.948 652.375C660.413 651.662 660.146 650.86 660.146 649.97V627.252C660.146 626.361 660.413 625.649 660.948 625.114C661.66 624.401 662.462 624.045 663.353 624.045H675.113C676.003 624.045 676.449 623.6 676.449 622.709V616.027C676.449 605.158 678.231 596.606 681.794 590.37C685.358 584.134 690.881 579.768 698.364 577.274C706.026 574.78 716.093 573.71 728.565 574.067H733.91C734.801 574.067 735.514 574.423 736.049 575.136C736.761 575.67 737.118 576.383 737.118 577.274V598.655C737.118 599.546 736.761 600.348 736.049 601.06C735.514 601.595 734.801 601.862 733.91 601.862H729.1C723.754 602.04 719.924 603.466 717.607 606.138C715.291 608.633 714.133 612.82 714.133 618.7V622.709C714.133 623.6 714.578 624.045 715.469 624.045H735.781Z" fill="white"/>
<path d="M792.946 621.907C803.637 621.907 813.169 623.867 821.544 627.787C829.918 631.528 836.421 636.874 841.054 643.823C845.865 650.593 848.27 658.344 848.27 667.074V758.211C848.27 759.102 847.914 759.904 847.201 760.617C846.666 761.151 845.954 761.418 845.063 761.418H813.793C812.902 761.418 812.1 761.151 811.388 760.617C810.853 759.904 810.586 759.102 810.586 758.211V750.728C810.586 750.193 810.408 749.837 810.051 749.659C809.695 749.481 809.339 749.659 808.982 750.193C802.212 759.102 791.699 763.556 777.445 763.556C765.329 763.556 755.173 760.438 746.977 754.202C738.959 747.966 734.95 737.543 734.95 722.932C734.95 693.89 753.124 679.369 789.472 679.369H809.249C810.14 679.369 810.586 678.923 810.586 678.032V671.885C810.586 666.54 808.982 662.264 805.775 659.057C802.746 655.849 798.559 654.246 793.214 654.246C788.937 654.246 785.374 655.226 782.523 657.186C779.672 659.146 777.891 661.818 777.178 665.204C776.643 666.985 775.396 667.876 773.436 667.876L741.097 666.005C740.206 666.005 739.405 665.738 738.692 665.204C738.157 664.669 737.979 663.956 738.157 663.065C739.226 650.771 744.75 640.883 754.728 633.399C764.884 625.738 777.623 621.907 792.946 621.907ZM788.67 734.959C794.728 734.959 799.895 733.267 804.171 729.881C808.448 726.496 810.586 722.042 810.586 716.518V705.293C810.586 704.402 810.14 703.957 809.249 703.957H794.283C787.69 703.957 782.523 705.382 778.781 708.233C775.04 711.084 773.169 715.182 773.169 720.527C773.169 725.16 774.594 728.723 777.445 731.218C780.296 733.712 784.038 734.959 788.67 734.959Z" fill="white"/>
<path d="M905.011 763.289C888.441 763.289 875.256 759.637 865.456 752.331C855.657 745.026 850.757 735.405 850.757 723.467V721.329C850.757 720.438 851.024 719.725 851.558 719.191C852.271 718.478 853.073 718.122 853.964 718.122H883.363C884.254 718.122 884.966 718.478 885.501 719.191C886.214 719.725 886.57 720.438 886.57 721.329V721.863C886.57 725.783 888.352 728.99 891.915 731.485C895.479 733.979 899.844 735.227 905.011 735.227C909.822 735.227 913.653 734.158 916.503 732.019C919.354 729.703 920.78 726.852 920.78 723.467C920.78 720.082 919.176 717.498 915.969 715.716C912.94 713.935 907.951 711.886 901.002 709.569C898.151 708.857 893.875 707.431 888.174 705.293C877.483 701.73 868.752 696.919 861.982 690.861C855.389 684.803 852.093 676.072 852.093 664.669C852.093 651.662 856.815 641.328 866.258 633.667C875.701 626.005 888.174 622.174 903.675 622.174C919.711 622.174 932.45 626.183 941.893 634.201C951.515 642.041 956.326 652.553 956.326 665.738C956.326 667.698 955.257 668.678 953.119 668.678H924.254C923.363 668.678 922.561 668.411 921.849 667.876C921.314 667.164 921.047 666.362 921.047 665.471V664.669C921.047 660.927 919.532 657.809 916.503 655.315C913.474 652.82 909.376 651.573 904.209 651.573C899.399 651.573 895.479 652.731 892.45 655.048C889.599 657.364 888.174 660.215 888.174 663.6C888.174 667.342 889.955 670.282 893.519 672.42C897.082 674.38 902.517 676.429 909.822 678.567C911.425 679.101 912.94 679.636 914.365 680.17C915.969 680.527 917.394 680.972 918.642 681.507C930.757 685.605 940.468 690.594 947.773 696.473C955.078 702.175 958.731 710.727 958.731 722.131C958.731 734.959 953.831 745.026 944.032 752.331C934.41 759.637 921.403 763.289 905.011 763.289Z" fill="white"/>
<path d="M785.329 817.037C786.933 824.877 787.734 834.231 787.734 845.1C787.734 857.038 786.843 866.926 785.062 874.766C779.182 903.096 765.284 917.261 743.369 917.261C731.074 917.261 721.631 913.43 715.039 905.769C714.682 905.234 714.326 905.056 713.97 905.234C713.613 905.412 713.435 905.769 713.435 906.303V911.916C713.435 912.807 713.079 913.608 712.366 914.321C711.832 914.856 711.119 915.123 710.228 915.123H678.958C678.067 915.123 677.265 914.856 676.553 914.321C676.018 913.608 675.751 912.807 675.751 911.916V731.246C675.751 730.355 676.018 729.642 676.553 729.108C677.265 728.395 678.067 728.039 678.958 728.039H710.228C711.119 728.039 711.832 728.395 712.366 729.108C713.079 729.642 713.435 730.355 713.435 731.246V786.035C713.435 786.569 713.613 786.926 713.97 787.104C714.326 787.282 714.682 787.104 715.039 786.569C718.424 782.649 722.344 779.888 726.798 778.284C731.431 776.502 736.776 775.611 742.834 775.611C754.415 775.611 763.77 779.175 770.897 786.302C778.024 793.429 782.834 803.674 785.329 817.037ZM747.912 869.154C749.337 863.274 750.05 855.612 750.05 846.169C750.05 835.478 749.248 827.55 747.645 822.382C744.794 812.761 739.36 807.95 731.342 807.95C723.146 807.95 717.889 812.85 715.573 822.65C714.148 828.886 713.435 836.726 713.435 846.169C713.435 856.503 714.148 864.254 715.573 869.421C717.889 879.755 723.146 884.922 731.342 884.922C740.072 884.922 745.596 879.666 747.912 869.154Z" fill="white"/>
<path d="M865.209 780.957C865.209 780.066 865.477 779.353 866.011 778.819C866.724 778.106 867.526 777.75 868.416 777.75H899.686C900.577 777.75 901.29 778.106 901.824 778.819C902.537 779.353 902.893 780.066 902.893 780.957V911.916C902.893 912.807 902.537 913.608 901.824 914.321C901.29 914.856 900.577 915.123 899.686 915.123H868.416C867.526 915.123 866.724 914.856 866.011 914.321C865.477 913.608 865.209 912.807 865.209 911.916V905.234C865.209 904.7 865.031 904.432 864.675 904.432C864.318 904.254 863.962 904.343 863.606 904.7C857.548 912.896 848.015 916.994 835.009 916.994C822.893 916.994 812.915 913.341 805.075 906.036C797.235 898.731 793.315 887.951 793.315 873.697V780.957C793.315 780.066 793.583 779.353 794.117 778.819C794.83 778.106 795.632 777.75 796.523 777.75H827.792C828.683 777.75 829.396 778.106 829.931 778.819C830.643 779.353 831 780.066 831 780.957V864.877C831 871.113 832.425 876.013 835.276 879.577C838.305 883.14 842.492 884.922 847.837 884.922C853.182 884.922 857.37 883.051 860.399 879.31C863.606 875.568 865.209 870.579 865.209 864.343V780.957Z" fill="white"/>
<path d="M1049.65 775.611C1062.65 775.611 1072.54 779.799 1079.31 788.173C1086.26 796.369 1089.74 807.95 1089.74 822.917V911.916C1089.74 912.807 1089.38 913.608 1088.67 914.321C1088.13 914.856 1087.42 915.123 1086.53 915.123H1055.53C1054.63 915.123 1053.83 914.856 1053.12 914.321C1052.59 913.608 1052.32 912.807 1052.32 911.916V828.262C1052.32 822.026 1050.8 817.126 1047.78 813.563C1044.92 809.821 1041 807.95 1036.02 807.95C1030.85 807.95 1026.75 809.821 1023.72 813.563C1020.69 817.126 1019.18 821.937 1019.18 827.995V911.916C1019.18 912.807 1018.82 913.608 1018.11 914.321C1017.57 914.856 1016.86 915.123 1015.97 915.123H984.968C984.077 915.123 983.276 914.856 982.563 914.321C982.028 913.608 981.761 912.807 981.761 911.916V828.262C981.761 822.026 980.247 817.126 977.218 813.563C974.189 809.821 970.18 807.95 965.191 807.95C960.024 807.95 955.926 809.821 952.897 813.563C949.868 817.126 948.353 821.937 948.353 827.995V911.916C948.353 912.807 947.997 913.608 947.284 914.321C946.75 914.856 946.037 915.123 945.146 915.123H914.144C913.253 915.123 912.451 914.856 911.738 914.321C911.204 913.608 910.936 912.807 910.936 911.916V780.957C910.936 780.066 911.204 779.353 911.738 778.819C912.451 778.106 913.253 777.75 914.144 777.75H945.146C946.037 777.75 946.75 778.106 947.284 778.819C947.997 779.353 948.353 780.066 948.353 780.957V787.906C948.353 788.44 948.531 788.796 948.888 788.975C949.244 789.153 949.6 788.975 949.957 788.44C953.699 783.986 958.064 780.779 963.053 778.819C968.042 776.68 973.387 775.611 979.089 775.611C987.106 775.611 993.966 777.304 999.668 780.689C1005.55 783.897 1010.09 788.618 1013.3 794.854C1013.48 795.211 1013.74 795.389 1014.1 795.389C1014.46 795.211 1014.81 794.854 1015.17 794.32C1019.09 787.727 1024.08 783.006 1030.14 780.155C1036.19 777.126 1042.7 775.611 1049.65 775.611Z" fill="white"/>
<path d="M1102.4 914.321C1101.51 914.321 1100.71 914.054 1100 913.519C1099.46 912.807 1099.2 912.005 1099.2 911.114V789.008C1099.2 788.888 1099.19 788.763 1099.19 788.636C1099.13 786.927 1100.08 785.76 1101.79 785.666C1103.67 785.562 1106.35 785.509 1109.07 785.483C1116.14 785.417 1123.06 783.515 1129.07 779.796L1133.67 776.948C1134.56 776.948 1135.28 777.304 1135.81 778.017C1136.52 778.551 1136.88 779.264 1136.88 780.155V911.114C1136.88 912.005 1136.52 912.807 1135.81 913.519C1135.28 914.054 1134.56 914.321 1133.67 914.321H1102.4Z" fill="white"/>
<path d="M1145.41 738.486C1134 740.36 1112.75 749.976 1119.01 773.444C1132.45 775.644 1148.1 762.443 1145.41 738.486Z" fill="#EEEEEE"/>
<path d="M1065.88 729.512C1084.95 728.778 1119.42 743.444 1113.06 776.938C1097.41 781.336 1067.05 772.344 1065.88 729.512Z" fill="#EEEEEE"/>
<path d="M659.414 655.623V757.836H626.56V748.711H623.821C620.171 753.274 605.387 762.582 575.453 763.313C544.333 764.072 537.945 733.285 540.774 713.119C549.535 682.455 589.051 676.703 611.045 677.526C581.842 697.969 573.324 712.206 572.715 716.769C568.335 737.212 592.88 741.499 603.744 735.934C633.678 720.602 642.379 670.53 642.987 647.41C638.12 650.452 623.731 657.538 603.744 651.973C568.974 645.674 550.508 660.49 545.337 668.399C546.067 600.5 659.414 611.818 659.414 655.623Z" fill="white"/>
</svg>
